<svg xmlns="http://www.w3.org/2000/svg" viewBox="0 0 1690 470.001"><path fill-rule="evenodd" clip-rule="evenodd" fill="#FABF37" d="M198.1 198.282c23.817 16.842 41.847 41.342 50.543 69.915 13.271-29.048 23.177-59.735 23.177-86.632 0-9.137-1.34-17.959-3.828-26.282-27.337 7.391-51.476 22.565-69.892 42.999"/><path fill-rule="evenodd" clip-rule="evenodd" fill="#DA7F0A" d="M198.1 198.282c18.35-20.147 42.805-35.674 69.887-42.997-1.651-5.561-3.806-10.953-6.414-15.891l-.011-.001.01.019c-.814.404-1.623.817-2.429 1.237-25.526 12.778-46.838 32.989-61.043 57.633"/><path fill="#A7A5A6" d="M175.809 173.41a2.245 2.245 0 1 1 .001 4.49 2.245 2.245 0 0 1-.001-4.49"/><path fill-rule="evenodd" clip-rule="evenodd" fill="#3AB6D7" d="M143.99 98.137c11.308-5.065 23.685-7.926 36.866-7.926 13.467 0 26.249 2.942 37.749 8.217-9.631-7.721-20.998-13.364-33.429-16.241a122.04 122.04 0 0 0-25.929-2.771c-.289 0-.579-.005-.869-.012-35.728-.251-68.236-15.882-90.365-40.641 13.705 28.322 42.043 49.518 72.502 58.45.995.291 2.258.628 3.475.924"/><path fill-rule="evenodd" clip-rule="evenodd" fill="#78CB19" d="M47.719 96.571c18.429-1.925 36.856-.857 54.283 4.24-3.769-3.691-7.291-7.662-10.558-11.814-15.31-.481-30.041 2.202-43.725 7.574"/><path fill-rule="evenodd" clip-rule="evenodd" fill="#EE980D" d="M109.37 125.51c-26.387-2.815-45.156 12.081-45.461 12.391 5.545-3.711 11.715-5.491 18.883-5.491 6.705 0 13.267 2.229 18.495 5.51 2.413-4.3 5.093-8.388 8.083-12.41"/><path fill-rule="evenodd" clip-rule="evenodd" fill="#D13926" d="M225.143 101.763c-13.12-7.37-27.784-11.622-43.885-11.622-50.239 0-90.964 40.898-90.964 91.348 0 81.517 90.964 197.853 90.964 197.853s37.019-47.347 63.826-102.795c-5.247-26.38-18.236-50.353-36.416-68.727a.412.412 0 0 1-.031.028c-7.173 7.114-17.047 11.51-27.949 11.51-21.919 0-39.689-17.766-39.689-39.682 0-20.65 15.777-37.611 35.936-39.502 13.345-15.639 29.755-28.754 48.208-38.411"/><path fill="#231F20" d="M180.571 167.721c-6.573 0-11.902 5.328-11.902 11.903 0 6.573 5.329 11.902 11.902 11.902 6.574 0 11.902-5.329 11.902-11.902 0-6.575-5.328-11.903-11.902-11.903m-4.762 10.18a2.245 2.245 0 1 1 0-4.49 2.245 2.245 0 0 1 0 4.49"/><path fill="#F6C229" d="M103.926 120.775c-14.515 1.13-29.045 7.465-40.017 17.125 1.266-1.05 19.791-15.13 45.461-12.391a109.443 109.443 0 0 0-5.444-4.734"/><path fill-rule="evenodd" clip-rule="evenodd" fill="#F3B623" d="M99.798 117.584c-13.521 3.34-26.254 10.864-35.888 20.317 10.935-9.634 25.54-15.972 40.017-17.126a111.93 111.93 0 0 0-4.129-3.191"/><path fill-rule="evenodd" clip-rule="evenodd" fill="#4CAE09" d="M109.37 125.51c2.947-3.621 6.218-7.409 9.719-10.704-.001.089 0 .048 0 0-12.923-7.962-27.55-13.841-43.388-16.678-8.946-1.603-27.558-1.723-27.982-1.557 1.754.229 3.65.571 5.409.886 21.774 3.901 41.148 14.377 56.242 28.053"/><path fill="#B6DD57" d="M102.002 100.812c-.034-.01.035.01 0 0-17.279-5.055-36.011-6.1-54.283-4.24 2.998-.101 19.78.087 27.982 1.556 15.838 2.837 30.465 8.717 43.388 16.678 0 0 .001 0 0 0a122.452 122.452 0 0 1-17.087-13.994"/><path fill-rule="evenodd" clip-rule="evenodd" fill="#209BC7" d="M119.089 114.805c.078-.073-.085.074 0 0 5.2-4.859 11.184-9.312 17.408-12.852-.053-.02.056.02 0 0-30.737-10.427-55.665-33.475-68.484-63.191 6.611 31.5 25.435 58.62 51.076 76.043"/><path fill="#4FCAE3" d="M143.99 98.137a83.028 83.028 0 0 1-3.474-.924c-30.459-8.932-58.797-30.128-72.502-58.45 12.818 29.714 37.748 52.763 68.483 63.192a90.113 90.113 0 0 1 7.493-3.818"/><path fill-rule="evenodd" clip-rule="evenodd" fill="#CA3322" d="M248.644 268.197c-7.273-23.894-21.075-44.936-39.327-61.037-.224.233-.45.462-.679.689l.001-.001.03-.028c18.18 18.374 31.169 42.347 36.416 68.727 1.742-3.606 3.939-9.184 3.559-8.35"/><path fill-rule="evenodd" clip-rule="evenodd" fill="#A92F1E" d="M198.1 198.282c-4.558 4.416-10.732 7.132-17.529 7.132-14.028 0-25.4-11.547-25.4-25.791 0-3.869.845-7.537 2.349-10.832 5.377-10.232 11.914-19.824 19.419-28.62-20.161 1.89-35.939 18.853-35.939 39.504 0 21.916 17.77 39.682 39.689 39.682 10.904 0 20.779-4.397 27.952-11.513.227-.225.451-.453.673-.682v-.004a133.289 133.289 0 0 0-11.214-8.876"/><path fill-rule="evenodd" clip-rule="evenodd" fill="#ECECEC" d="M225.143 101.763c-28.831 15.088-52.686 38.603-67.623 67.029a26.015 26.015 0 0 0-2.349 10.832c0 14.244 11.372 25.791 25.4 25.791 6.808 0 12.969-2.704 17.529-7.132 14.206-24.693 35.481-44.837 61.043-57.634.806-.419 1.615-.832 2.429-1.237a91.582 91.582 0 0 0-36.429-37.649m-44.572 89.763c-6.573 0-11.902-5.329-11.902-11.902 0-6.574 5.329-11.903 11.902-11.903 6.574 0 11.902 5.329 11.902 11.903 0 6.573-5.328 11.902-11.902 11.902"/><path fill="#FFF" d="M1599.171 281.966c-8.118-6.698-19.889-9.336-31.863-9.336-19.889 0-39.98 9.741-42.822 32.674-2.232 18.063 12.786 24.557 26.587 30.848 8.727 4.059 16.439 7.509 15.627 14.612-1.015 7.712-7.915 9.538-16.439 9.538-11.365 0-24.963-4.871-29.833-6.697l-7.104 21.106c5.885 3.856 20.498 7.104 33.69 7.104 29.021 0 43.837-12.38 46.678-34.096 2.029-18.062-12.786-23.542-24.76-28.412-9.539-3.856-18.671-7.915-17.86-15.018.812-6.697 6.697-8.93 14.004-8.93 11.162 0 25.368 5.277 27.601 8.321l6.494-21.714zm-114.868 22.324c-1.624 13.395-15.83 20.092-28.007 20.092-2.638 0-5.886-.406-8.727-1.421 2.841-17.25 12.177-28.615 27.601-28.615 6.089 0 9.743 5.074 9.133 9.944m-4.87-30.644c-39.372 0-57.232 27.804-60.885 56.622-3.247 27.398 7.915 50.737 43.025 50.737 20.295 0 34.907-4.465 39.169-6.088l-.406-20.498c-5.886 2.232-15.627 4.465-25.369 4.465-15.221 0-29.022-4.871-27.601-20.092 4.06 1.218 8.93 1.826 13.801 1.826 20.092 0 47.084-9.133 50.534-36.733 2.436-20.498-11.567-30.239-32.268-30.239m-127.451 72.046c-2.232 17.454-4.465 36.125 26.586 36.125 3.45 0 13.598-.406 22.73-4.262l-.406-20.092c-5.683 1.421-11.366 1.826-14.004 1.826-6.697 0-7.915-3.45-7.103-10.959l6.697-53.579h27.195l3.856-19.686h-28.616l3.247-25.977-28.007 2.436-3.044 23.745h-18.266l-2.233 19.483h17.657l-6.289 50.94zm-61.493 25.369c2.232 7.306 9.336 10.553 18.468 10.553 6.698 0 14.207-1.826 21.513-5.074l1.014-18.468c-2.03 1.217-4.668 2.029-7.306 2.029-3.45 0-6.291-1.624-5.885-5.683l9.133-73.265c-12.988-5.885-25.165-8.118-36.531-8.118-40.995 0-57.028 27.804-60.681 55.608-3.45 27.601 4.465 52.766 35.313 52.766 10.349.002 19.482-4.666 24.962-10.348m.203-15.424c-5.277 3.45-11.163 4.465-15.018 4.465-15.018 0-19.28-14.41-17.453-29.631 2.233-17.453 8.727-35.922 28.21-35.922 3.856 0 6.9.203 11.162 2.638l-6.901 58.45zm-99.849-54.188c4.871-3.247 15.83-4.871 24.557-4.871 2.639 0 7.509.203 10.554.609l5.682-23.136c-3.247-.609-6.494-.812-9.336-.812-11.162 0-22.933 4.262-31.863 11.568v-9.742h-24.151l-12.583 104.113h27.601l9.539-77.729zm-70.624-42.416h28.21l3.653-30.036h-28.21l-3.653 30.036zm26.181 16.033h-28.21l-12.583 104.113h28.21l12.583-104.113zm-112.431 34.298l5.277-44.039c4.059-.812 8.93-1.624 14.206-1.624 11.974 0 24.354 4.465 21.715 24.76-2.233 18.266-14.206 22.121-27.601 22.121-4.667 0-9.335-.203-13.597-1.218m-37.748 69.814h29.225l6.089-50.128c7.103 1.624 13.8 2.436 20.498 2.436 25.977 0 47.287-12.988 51.143-43.837 4.667-38.154-20.498-45.46-47.084-45.46-15.83 0-32.269 1.623-43.634 4.059l-16.237 132.93zm-71.031 1.827c2.841 0 14.815-.812 22.324-6.291l-.406 4.059c-2.841 22.324-12.177 25.977-23.745 25.977-8.524 0-23.745-2.233-36.734-6.291l-6.291 21.715c12.583 5.277 28.007 7.915 39.169 7.915 24.963 0 49.925-10.756 54.593-48.708l12.786-104.316h-27.804l-9.944 82.397c-6.088 2.233-11.162 3.044-15.627 3.044-18.063 0-20.092-14.815-17.251-37.545 2.233-19.28 9.539-40.387 12.177-47.896h-26.383c-4.871 12.786-9.944 31.254-12.177 49.114-3.654 29.428-3.248 56.826 35.313 56.826m-89.703-9.944c2.232 7.306 9.336 10.553 18.468 10.553 6.698 0 14.207-1.826 21.513-5.074l1.015-18.468c-2.029 1.217-4.668 2.029-7.306 2.029-3.45 0-6.291-1.624-5.885-5.683l9.133-73.265c-12.989-5.885-25.166-8.118-36.531-8.118-40.996 0-57.028 27.804-60.682 55.608-3.45 27.601 4.465 52.766 35.313 52.766 10.35.002 19.483-4.666 24.962-10.348m.203-15.424c-5.277 3.45-11.162 4.465-15.018 4.465-15.018 0-19.28-14.41-17.453-29.631 2.232-17.453 8.727-35.922 28.21-35.922 3.856 0 6.9.203 11.162 2.638l-6.901 58.45zm-108.577 2.638c-4.871 1.421-9.742 2.029-13.598 2.029-15.018 0-22.933-9.538-20.295-31.051 2.232-19.28 11.974-34.501 27.804-34.501 4.059 0 8.727.203 13.8 1.421l-7.711 62.102zm42.619-121.363h-27.601l-4.871 40.387c-6.088-2.841-12.989-3.653-18.468-3.653-36.125 0-50.331 28.412-53.579 55.405-5.277 42.01 16.642 52.361 41.807 52.361 17.048 0 34.095-2.638 45.663-5.885l17.049-138.615zm-140.438 22.121h28.21l3.653-30.036h-28.21l-3.653 30.036zm26.18 16.033h-28.21l-12.582 104.113h28.209l12.583-104.113zm-53.779 82.397c-5.683 1.421-10.35 1.421-12.786 1.421-6.291 0-7.509-3.247-6.698-10.756l13.598-111.013h-28.412l-13.395 109.389c-2.029 17.047-3.247 35.313 27.195 35.313 3.247 0 11.568-.609 20.904-4.465l-.406-19.889zm-103.3-62.305c11.365 0 18.874 5.074 15.627 32.472-3.247 25.774-12.38 32.472-23.745 32.472-11.162 0-18.874-6.698-15.627-32.472 3.248-27.398 12.38-32.472 23.745-32.472m-11.771 86.659c29.428 0 49.925-14.612 54.796-54.39 4.871-40.184-11.162-54.187-40.184-54.187-28.007 0-48.911 14.409-53.781 54.39-5.073 39.98 11.365 54.187 39.169 54.187m-81.582-84.63h-48.911l6.698-53.578h-29.022l-16.642 135.569h29.022l7.103-58.449h48.911l-7.103 58.449h29.022l16.642-135.569H411.74l-6.698 53.578z"/></svg>